<svg xmlns="http://www.w3.org/2000/svg" width="22.488" height="22.933" viewBox="0 0 22.488 22.933">
  <g id="Group_113" data-name="Group 113" transform="translate(-300.674 -492.193)">
    <path id="Subtraction_229" data-name="Subtraction 229" d="M15.953,20.791H0a10.368,10.368,0,0,1,6.776-9.656,6.125,6.125,0,0,1-2.464-4.9A6.363,6.363,0,0,1,10.78,0a6.364,6.364,0,0,1,6.47,6.237,6.124,6.124,0,0,1-2.465,4.9,10.549,10.549,0,0,1,5.866,5.453,3.236,3.236,0,0,0-4.7,4.2Z" transform="translate(300.674 492.193)" fill="#115a9c"/>
    <g id="Union_277" data-name="Union 277" transform="translate(315.767 507.73)" fill="#fff">
      <path d="M 5.835781574249268 6.073831081390381 L 5.816522121429443 6.054572105407715 L 1.341002106666565 1.579062104225159 L 1.32174825668335 1.559807777404785 C 1.39715850353241 1.476076602935791 1.476815223693848 1.396451711654663 1.560567736625671 1.321064591407776 L 1.579912066459656 1.340412020683289 L 6.054841995239258 5.816041946411133 L 6.074185371398926 5.835387706756592 C 5.998916625976563 5.918977737426758 5.919363975524902 5.998554706573486 5.835781574249268 6.073831081390381 Z" stroke="none"/>
      <path d="M 3.697792053222656 1.9073486328125e-06 C 5.736752033233643 1.9073486328125e-06 7.39558219909668 1.65883207321167 7.39558219909668 3.697792053222656 C 7.39558219909668 5.736752033233643 5.736752033233643 7.39558219909668 3.697792053222656 7.39558219909668 C 1.65883207321167 7.39558219909668 1.9073486328125e-06 5.736752033233643 1.9073486328125e-06 3.697792053222656 C 1.9073486328125e-06 1.65883207321167 1.65883207321167 1.9073486328125e-06 3.697792053222656 1.9073486328125e-06 Z M 6.408421993255615 5.462512016296387 C 6.740272045135498 4.954611778259277 6.933362007141113 4.348321914672852 6.933362007141113 3.697792053222656 C 6.933362007141113 1.913981914520264 5.481602191925049 0.4622220993041992 3.697792053222656 0.4622220993041992 C 3.047482013702393 0.4622220993041992 2.441292285919189 0.6552319526672363 1.933492183685303 0.986882209777832 L 6.408421993255615 5.462512016296387 Z M 3.697792053222656 6.933362007141113 C 4.348542213439941 6.933362007141113 4.954961776733398 6.740171909332275 5.462972164154053 6.408122062683105 L 0.9874520301818848 1.93261194229126 C 0.6554021835327148 2.440611839294434 0.4622220993041992 3.047041893005371 0.4622220993041992 3.697792053222656 C 0.4622220993041992 5.481602191925049 1.913981914520264 6.933362007141113 3.697792053222656 6.933362007141113 Z" stroke="none" fill="#ec0000"/>
    </g>
  </g>
</svg>
