<svg xmlns="http://www.w3.org/2000/svg" width="19.564" height="20.164" viewBox="0 0 19.564 20.164">
  <path id="Union_259" data-name="Union 259" d="M16.452,18.573a3.523,3.523,0,0,1-.4.023H12.41a3.518,3.518,0,0,1,0-7.035h3.637a3.518,3.518,0,0,1,2.333,6.151l.1,2.452ZM.789,13.047.982,8.421A5.337,5.337,0,0,1,5.336,0h5.335a5.336,5.336,0,1,1,0,10.672H5.336A5.341,5.341,0,0,1,4,10.5L.791,13.047l0,0ZM4,6.225a.446.446,0,0,0,.445.445h6.67a.445.445,0,1,0,0-.889H4.447A.446.446,0,0,0,4,6.225ZM4,4a.446.446,0,0,0,.445.445h6.67a.445.445,0,1,0,0-.889H4.447A.446.446,0,0,0,4,4Z" fill="#115a9c"/>
</svg>
